# xmcd
#
# Track frame offsets:
# 150
# 19942
# 52747
# 74297
# 96955
# 144260
# 163350
# 182865
#
# Disc length: 2641 seconds
#
#
# Revision: 2
# Processed by: cddbd v1.5.1PL0 Copyright (c) Steve Scherf et al.
# Submitted via: FreeRIP 2.941 
#
DISCID=6b0a4f08
DTITLE=Count Basie - Farmers Market Barbecue
DYEAR=1982
DGENRE=Big Band
TTITLE0=Way Out Basie
TTITLE1=St. Louis Blues
TTITLE2=Beaver Junction
TTITLE3=Lester Leaps In
TTITLE4=Blues For The Barbecue
TTITLE5=I Don't Know Yet
TTITLE6=Ain't That Something
TTITLE7=Jumpin' At The Woodside
EXTD=
EXTT0=
EXTT1=
EXTT2=
EXTT3=
EXTT4=
EXTT5=
EXTT6=
EXTT7=
PLAYORDER=
